<?xml version="1.0" encoding="utf-8"?>
<!-- Generator: Adobe Illustrator 18.1.1, SVG Export Plug-In . SVG Version: 6.00 Build 0)  -->
<svg version="1.1" id="Layer_1" xmlns="http://www.w3.org/2000/svg" xmlns:xlink="http://www.w3.org/1999/xlink" x="0px" y="0px"
	 viewBox="0 0 201.8 202" enable-background="new 0 0 201.8 202" xml:space="preserve">
<g>
	<path fill="#FFFFFF" d="M0,99.4c0-18,2.7-37,7.8-55.6c4-14.5,12.7-25.3,26.1-32.1c3.3-1.6,6.8-2.8,10.3-3.9
		c13.9-4.1,28-6.4,42.5-7.4c14.7-1,29.4-0.4,44.1,1.5c10.6,1.4,21.1,3.7,31.3,7.3c15.4,5.3,25.7,15.8,30.8,31.2
		c3.2,9.6,5.1,19.5,6.6,29.5c2.5,16.5,3.1,33.1,1.5,49.8c-1.3,13.9-3.8,27.6-7.8,40.9c-4.2,13.9-13.1,23.9-26.3,30.1
		c-8.2,3.8-17,5.6-25.8,7.3c-11.3,2.2-22.8,3.5-34.3,3.9c-11.7,0.4-23.3-0.4-34.9-2.1c-9.7-1.4-19.2-3.2-28.6-6
		c-10.1-3-18.7-8.2-25.5-16.3c-5-6-8.1-13-10.2-20.5C2.4,138.6,0.1,119.8,0,99.4z M93.8,120.9c0,11.5,0,23,0,34.5
		c0,1.4-0.1,2.9,0.2,4.3c0.5,2.9,2.2,4.9,5.1,5.7c2.9,0.8,5.3-0.1,7.3-2.4c1.7-2,1.8-4.3,1.8-6.7c0-23.6,0-47.3,0-70.9
		c0-1.3,0-2.6-0.3-3.8c-0.9-3.8-4-6-7.7-5.7c-3.5,0.3-6,2.9-6.3,6.7c-0.1,1.3-0.1,2.6-0.1,3.8C93.8,97.9,93.8,109.4,93.8,120.9z
		 M90.2,50.1c-0.1,6.2,4.6,11.1,10.6,11.1c5.8,0,10.8-4.6,10.9-10.4c0.1-5-3.4-11-10.7-11C94.9,39.9,90.3,44.2,90.2,50.1z"/>
</g>
</svg>
